<svg xmlns="http://www.w3.org/2000/svg" width="40" height="40" version="1.1">
 <rect style="opacity:0;fill:#616569" width="40" height="40" x="0" y="0"/>
 <path style="fill:#eff0f1" d="m 32.999999,19.999574 a 13,12.995255 0 1 1 -25.999998,0 13,12.995255 0 1 1 25.999998,0"/>
 <path style="fill:#31363b" d="m 23.655765,11.999881 -7.346971,7.369626 -1.398354,-1.379475 a 0.85047318,0.85041046 0 0 0 -0.610807,-0.255591 0.85047318,0.85041046 0 0 0 -0.58266,1.464626 l 3.021403,2.980318 -4.507301,4.484151 a 0.78170339,0.78164574 0 1 0 1.101854,1.109043 l 4.519958,-4.492861 2.953419,2.912958 a 0.85047318,0.85041046 0 1 0 1.193468,-1.209038 l -1.324356,-1.308794 7.324475,-7.345941 z"/>
</svg>
