<svg xmlns="http://www.w3.org/2000/svg" xmlns:xlink="http://www.w3.org/1999/xlink" width="40" height="46" version="1.1">
 <defs>
  <linearGradient id="3" x1="48.35" x2="48.41" y1="32.21" y2="12.318" gradientTransform="matrix(1.23951,0,0,1.49415,509.36,564.94)" gradientUnits="userSpaceOnUse" xlink:href="#2"/>
  <linearGradient id="2">
   <stop stop-color="#515a63"/>
   <stop offset="1" stop-color="#474f57"/>
  </linearGradient>
  <linearGradient id="0" x1="48.35" x2="48.41" y1="32.21" y2="12.318" gradientTransform="matrix(0.41317,0,0,1.24513,-14.78,-10.15)" gradientUnits="userSpaceOnUse" xlink:href="#2"/>
  <linearGradient id="1" x1="48.35" x2="48.41" y1="32.21" y2="12.318" gradientTransform="matrix(0.41317,0,0,1.49415,538.94,564.94)" gradientUnits="userSpaceOnUse" xlink:href="#2"/>
  <radialGradient id="radialGradient843" cx="6" cy="305.444" r="3" fx="6" fy="305.444" gradientTransform="matrix(-2.3333334,8.2688579e-6,-1.2862565e-5,-2.6666453,-25.996071,846.51379)" gradientUnits="userSpaceOnUse" xlink:href="#linearGradient831"/>
  <linearGradient id="linearGradient831">
   <stop style="stop-color:#000000" offset="0"/>
   <stop style="stop-color:#000000;stop-opacity:0" offset="1"/>
  </linearGradient>
  <radialGradient id="radialGradient843-3" cx="6" cy="305.444" r="3" fx="6" fy="305.444" gradientTransform="matrix(-2.6666667,9.3024657e-6,-1.4700074e-5,-2.9999761,24.004488,953.32807)" gradientUnits="userSpaceOnUse" xlink:href="#linearGradient831"/>
  <linearGradient id="linearGradient833" x1="9" x2="9" y1="278.444" y2="312.444" gradientTransform="matrix(0.38095237,0,0,0.26470587,8.0000004,-36.701474)" gradientUnits="userSpaceOnUse" xlink:href="#linearGradient831"/>
  <linearGradient id="linearGradient862" x1="9" x2="9" y1="278.444" y2="312.444" gradientTransform="matrix(0.38095237,0,0,0.26470587,16,-36.701474)" gradientUnits="userSpaceOnUse" xlink:href="#linearGradient831"/>
  <linearGradient id="linearGradient866" x1="9" x2="9" y1="278.444" y2="312.444" gradientTransform="matrix(0.38095237,0,0,0.26470587,24,-36.701474)" gradientUnits="userSpaceOnUse" xlink:href="#linearGradient831"/>
  <linearGradient id="linearGradient870" x1="9" x2="9" y1="278.444" y2="312.444" gradientTransform="matrix(0.38095237,0,0,0.26470587,32,-36.701474)" gradientUnits="userSpaceOnUse" xlink:href="#linearGradient831"/>
 </defs>
 <g transform="translate(0,-3.8146973e-6)">
  <g transform="matrix(-1,0,0,1,40,0)">
   <rect style="opacity:0.4;fill:url(#radialGradient843-3)" width="8" height="9" x="0" y="37"/>
   <rect style="opacity:0.4;fill:url(#linearGradient833)" width="8" height="9" x="8" y="37"/>
   <rect style="opacity:0.4;fill:url(#linearGradient862)" width="8" height="9" x="16" y="37"/>
   <rect style="opacity:0.4;fill:url(#linearGradient866)" width="8" height="9" x="24" y="37"/>
   <rect style="opacity:0.4;fill:url(#linearGradient870)" width="8" height="9" x="32" y="37"/>
  </g>
  <path style="fill:#31363b" d="m 0,0 h 40 v 4 32 c 0,2.216 -1.784,4 -4,4 H 4 0 V 4 Z"/>
  <path style="fill:#616569" d="M 40,0 V 1 H 0 V 0 Z"/>
 </g>
</svg>
