<svg xmlns="http://www.w3.org/2000/svg" width="38" height="32" version="1.1">
 <defs>
  <style id="current-color-scheme" type="text/css">
   .ColorScheme-Text { color:#dfdfdf; } .ColorScheme-Highlight { color:#4285f4; }
  </style>
 </defs>
 <path style="fill:#31363b" d="M 0,0 H 38 V 32 H 0 Z"/>
 <g>
  <rect style="fill:#3cace6" width="26" height="27" x="3" y="-32" transform="rotate(90)"/>
  <rect style="fill:#3cace6" width="26" height="1" x="6" y="29"/>
  <rect style="fill:#3cace6" width="26" height="1" x="6" y="2"/>
  <rect style="fill:#3cace6" width="26" height="1" x="3" y="-33" transform="rotate(90)"/>
 </g>
 <g style="fill:#eff0f1" transform="translate(11,8)">
  <path style="fill:currentColor" class="ColorScheme-Text" d="M 4,2 C 4,2 2,2 2,4 v 7 c 0,1 -1,1 -1,1 H 0 v 2 h 16 v -2 h -1 c 0,0 -1,0 -1,-1 V 4 c 0,0 0,-2 -2,-2 z m 3,3 h 2 v 2 h 2 V 9 H 9 v 2 H 7 V 9 H 5 V 7 h 2 z"/>
 </g>
</svg>
